<svg height="480pt" viewBox="0 0 480 480" width="480pt" xmlns="http://www.w3.org/2000/svg"><path d="m136 8-80 80h80zm0 0" fill="#ff7956"/><path d="m360 40h48v160h-48zm0 0" fill="#ffb655"/><path d="m136 8v80h-80v48h80l32 64h192v-192zm0 0" fill="#ffdaaa"/><path d="m360 200h-192l-32-64h-128v336h464v-272zm0 0" fill="#ffcd00"/><path d="m8 216v256h256c-114.96875 0-256-127.769531-256-256zm0 0" fill="#ddb200"/><g fill="#231f20"><path d="m176 80h16v16h-16zm0 0"/><path d="m208 80h112v16h-112zm0 0"/><path d="m176 112h16v16h-16zm0 0"/><path d="m208 112h112v16h-112zm0 0"/><path d="m176 144h16v16h-16zm0 0"/><path d="m208 144h112v16h-112zm0 0"/><path d="m176 48h16v16h-16zm0 0"/><path d="m208 48h112v16h-112zm0 0"/><path d="m416 192v-160h-48v-32h-235.3125l-84.6875 84.6875v43.3125h-48v352h480v-288zm-16-144v144h-32v-144zm-272-20.6875v52.6875h-52.6875zm-64 68.6875h80v-80h208v176h-179.054688l-32-64h-76.945312zm400 368h-448v-320h115.054688l32 64h300.945312zm0 0"/></g></svg>