<svg height="484pt" viewBox="-2 0 484 484.976" width="484pt" xmlns="http://www.w3.org/2000/svg"><path d="m424.488281 56 48-48h-464l48 48zm0 0" fill="#254b6f"/><path d="m424.488281 56v256l48 48v-352zm0 0" fill="#254b6f"/><path d="m56.488281 56-48-48v352l48-48zm0 0" fill="#254b6f"/><path d="m56.488281 312-48 48h464l-48-48zm0 0" fill="#254b6f"/><path d="m56.488281 56h368v256h-368zm0 0" fill="#efeadd"/><path d="m236.488281 439.921875 19.679688 29.839844 36-62.402344c-3.140625-4.894531-7.285157-9.066406-12.160157-12.238281-8.800781-3.601563-25.441406 4.078125-32.078124-2.5625-6.640626-6.636719.957031-23.199219-2.5625-32l-44.558594 77.203125zm0 0" fill="#f2b134"/><path d="m361.046875 392.558594c-6.640625 6.640625-23.277344-1.039063-32.078125 2.5625-4.875 3.171875-9.019531 7.34375-12.160156 12.238281l36 62.402344 19.679687-29.839844 35.679688-2.160156-44.558594-77.203125c-3.519531 8.800781 4.078125 25.363281-2.5625 32zm0 0" fill="#f2b134"/><path d="m384.488281 336c0 9.761719-17.359375 16-20.878906 24.480469v.078125c-3.519531 8.800781 4.078125 25.363281-2.5625 32-6.640625 6.640625-23.277344-1.039063-32.078125 2.5625-4.875 3.171875-9.019531 7.34375-12.160156 12.238281-3.679688 4.640625-7.601563 8.640625-12.320313 8.640625s-8.640625-4-12.320312-8.640625c-3.140625-4.894531-7.285157-9.066406-12.160157-12.238281-8.800781-3.601563-25.441406 4.078125-32.078124-2.5625-6.640626-6.636719.957031-23.199219-2.5625-32v-.078125c-3.519532-8.480469-20.878907-14.71875-20.878907-24.480469s17.359375-16 20.878907-24.480469c3.601562-8.800781-4.078126-25.441406 2.5625-32.078125 6.636718-6.640625 23.277343 1.039063 32.078124-2.5625 8.480469-3.519531 14.71875-20.878906 24.480469-20.878906 9.757813 0 16 17.359375 24.480469 20.878906 8.800781 3.601563 25.4375-4.078125 32.078125 2.5625 6.640625 6.636719-1.039063 23.277344 2.5625 32.078125 3.519531 8.480469 20.878906 14.71875 20.878906 24.480469zm0 0" fill="#fa9028"/><path d="m344.488281 336c0 22.089844-17.910156 40-40 40-22.089843 0-40-17.910156-40-40s17.910157-40 40-40c22.089844 0 40 17.910156 40 40zm0 0" fill="#ee2820"/><path d="m256.488281 120c0 8.835938-7.164062 16-16 16-8.835937 0-16-7.164062-16-16s7.164063-16 16-16c8.835938 0 16 7.164062 16 16zm0 0" fill="#006df0"/><path d="m56.488281 136.078125v175.921875h157.121094c-87.105469-1.695312-157.121094-79.703125-157.121094-175.921875zm0 0" fill="#d9d6cc"/><g fill="#231f20"><path d="m.488281 0v368h216v-16h-188.6875l32-32h156.6875v-16h-152v-240h352v240h-24v16h28.6875l32 32h-60.6875v16h88v-368zm48 308.6875-32 32v-313.375l32 32zm11.3125-260.6875-32-32h425.375l-32 32zm404.6875 292.6875-32-32v-249.375l32-32zm0 0"/><path d="m104.488281 160h272v16h-272zm0 0"/><path d="m136.488281 192h80v16h-80zm0 0"/><path d="m264.488281 192h80v16h-80zm0 0"/><path d="m264.488281 224h16v16h-16zm0 0"/><path d="m232.488281 224h16v16h-16zm0 0"/><path d="m200.488281 224h16v16h-16zm0 0"/><path d="m378.390625 356.527344c6.28125-4.953125 14.097656-11.121094 14.097656-20.527344s-7.816406-15.574219-14.097656-20.527344c-2.820313-1.921875-5.3125-4.28125-7.382813-6.992187-.558593-3.566407-.503906-7.199219.167969-10.746094.921875-8.214844 1.96875-17.519531-4.472656-23.949219-6.4375-6.433594-15.742187-5.402344-23.949219-4.480468-3.535156.675781-7.160156.742187-10.714844.191406-2.730468-2.066406-5.101562-4.566406-7.023437-7.398438-4.953125-6.28125-11.121094-14.097656-20.527344-14.097656-9.410156 0-15.578125 7.816406-20.527343 14.097656-1.914063 2.816406-4.269532 5.308594-6.976563 7.382813-3.570313.5625-7.210937.5-10.761719-.175781-8.199218-.921876-17.511718-1.960938-23.949218 4.480468-6.441407 6.4375-5.394532 15.734375-4.472657 23.949219.667969 3.539063.730469 7.164063.183594 10.722656-2.070313 2.722657-4.570313 5.09375-7.398437 7.015625-6.28125 4.953125-14.097657 11.121094-14.097657 20.527344s7.816407 15.574219 14.097657 20.527344c1.710937 1.351562 3.75 2.992187 5.285156 4.472656l-48.457032 83.960938 44.59375 2.703124 24.617188 37.3125 37.269531-64.601562c6.234375 4.835938 14.949219 4.835938 21.183594 0l37.273437 64.601562 24.617188-37.3125 44.589844-2.703124-48.453125-83.960938c1.542969-1.480469 3.574219-3.121094 5.285156-4.472656zm-122.703125 98.007812-14.742188-22.398437-26.769531-1.601563 23.542969-40.800781c.660156 3.195313 2.234375 6.128906 4.527344 8.441406 6.402344 6.449219 15.746094 5.398438 23.953125 4.480469 3.527343-.6875 7.148437-.753906 10.695312-.199219 2.183594 1.519531 4.078125 3.417969 5.601563 5.597657zm48.800781-46.535156c-.273437 0-1.816406-.273438-6.136719-5.710938l-1.976562-2.464843c-3.355469-5.097657-7.945312-9.261719-13.34375-12.113281-2.992188-1.140626-6.179688-1.683594-9.382812-1.597657-3.078126.0625-6.148438.289063-9.199219.6875-3.578125.6875-7.25.734375-10.839844.136719-.671875-3.617188-.652344-7.328125.0625-10.9375 1.011719-5.566406.90625-11.273438-.304687-16.800781l-.613282-1.824219c-2.902344-5.414062-7.121094-10.015625-12.265625-13.375-2.601562-2.046875-8-6.3125-8-8s5.40625-5.921875 8-8c5.160157-3.390625 9.386719-8.027344 12.28125-13.480469 1.84375-6.027343 2.160157-12.417969.917969-18.597656-.695312-3.574219-.742188-7.246094-.136719-10.832031 3.605469-.652344 7.296875-.625 10.890625.085937 6.191406 1.242188 12.59375.921875 18.628906-.9375 5.429688-2.886719 10.042969-7.097656 13.417969-12.238281 2.054688-2.601562 6.320313-8 8-8 1.679688 0 5.917969 5.40625 8 8 3.386719 5.164062 8.023438 9.390625 13.480469 12.28125 6.023438 1.835938 12.40625 2.152344 18.582031.917969 3.578125-.699219 7.25-.746094 10.839844-.136719.652344 3.601562.621094 7.292969-.085937 10.882812-1.242188 6.179688-.925782 12.570313.917968 18.597657 2.890625 5.445312 7.109375 10.074219 12.265625 13.457031 2.601563 2.046875 8 6.3125 8 8s-5.410156 5.921875-8 8c-5.148437 3.378906-9.367187 8-12.257812 13.441406l-.613281 1.597656v.160157c-1.210938 5.527343-1.316407 11.234375-.304688 16.800781.699219 3.589844.738281 7.277344.113281 10.878906-3.605469.648438-7.296875.617188-10.890625-.085937-6.199218-1.234375-12.605468-.910157-18.648437.941406-5.367188 2.855469-9.933594 7.011719-13.277344 12.089844l-2.066406 2.566406c-4.238281 5.335937-5.78125 5.609375-6.054688 5.609375zm63.519531 24.175781-14.742187 22.398438-26.792969-46.398438c1.5-2.171875 3.367188-4.066406 5.519532-5.601562 3.570312-.558594 7.210937-.5 10.761718.179687 8.214844.925782 17.519532 1.972656 23.949219-4.480468 2.289063-2.320313 3.863281-5.25 4.527344-8.441407l23.546875 40.800781zm0 0"/><path d="m352.488281 336c0-26.507812-21.492187-48-48-48-26.511719 0-48 21.492188-48 48s21.488281 48 48 48c26.5-.027344 47.972657-21.5 48-48zm-48 32c-17.671875 0-32-14.328125-32-32s14.328125-32 32-32 32 14.328125 32 32-14.328125 32-32 32zm0 0"/><path d="m264.488281 120c0-13.253906-10.746093-24-24-24-13.253906 0-24 10.746094-24 24s10.746094 24 24 24c13.253907 0 24-10.746094 24-24zm-32 0c0-4.417969 3.582031-8 8-8s8 3.582031 8 8-3.582031 8-8 8-8-3.582031-8-8zm0 0"/></g></svg>