<svg height="480pt" viewBox="0 0 480.0402 480" width="480pt" xmlns="http://www.w3.org/2000/svg"><path d="m344.039062 408.019531h-304v-352h224l80 80zm0 0" fill="#efeadd"/><path d="m392.039062 8.019531h-288v48h160l80 80v48h48zm0 0" fill="#254b6f"/><path d="m288.039062 344.019531c0 8.835938-7.164062 16-16 16-8.835937 0-16-7.164062-16-16v-19.839843l-168-40.296876v188.136719h368v-188.136719l-168 40.296876zm0 0" fill="#c49a6c"/><path d="m88.039062 296.101562v175.917969h221.121094c-87.105468-1.695312-221.121094-79.703125-221.121094-175.917969zm0 0" fill="#b08b61"/><path d="m264.039062 136.019531h80l-80-80zm0 0" fill="#ee2820"/><path d="m456.039062 184.019531h-368c-8.824218.027344-15.972656 7.175781-16 16v67.359375c-.019531 7.40625 5.042969 13.859375 12.242188 15.601563l3.757812.902343 168 40.296876v-12.160157c0-8.835937 7.164063-16 16-16 8.835938 0 16 7.164063 16 16v12.160157l168-40.296876 3.761719-.902343c7.199219-1.742188 12.261719-8.195313 12.238281-15.601563v-67.359375c-.023437-8.824219-7.171874-15.972656-16-16zm0 0" fill="#8b5e3c"/><path d="m8.039062 440.019531c0 17.671875 14.328126 32 32 32h32v-64h-32c-17.671874 0-32 14.328125-32 32zm0 0" fill="#efeadd"/><path d="m104.039062 472.019531v-64h-32v64zm0 0" fill="#808285"/><path d="m312.039062 440.019531-16-16 24-16h-216v32zm0 0" fill="#fa9028"/><path d="m312.039062 440.019531-16 16 24 16 64-32-64-32-24 16zm0 0" fill="#808285"/><path d="m312.039062 440.019531h-208v32h216l-24-16zm0 0" fill="#ff5023"/><path d="m272.039062 296.019531c-8.835937 0-16 7.164063-16 16v32c0 8.835938 7.164063 16 16 16 8.835938 0 16-7.164062 16-16v-32c0-8.835937-7.164062-16-16-16zm0 0" fill="#fa9028"/><g fill="#231f20"><path d="m456.039062 176.019531h-56v-175.9999998h-304v47.9999998h-64v352.800781c-20.136718 4.089844-33.902343 22.773438-31.835937 43.21875 2.066406 20.445313 19.285156 36 39.835937 35.980469h281.890626l80-40-80-40h-273.890626v-336h208v80h80v32h-248c-13.253906 0-24 10.746094-24 24v67.359375c0 10.164063 6.414063 19.214844 16 22.585938v94.054687h16v-89.992187l152 36.464844v13.527343c0 13.253907 10.746094 24 24 24 13.257813 0 24-10.746093 24-24v-13.527343l152-36.464844v169.992187h-80.285156v16h96.285156v-190.054687c9.585938-3.371094 16-12.421875 16-22.585938v-67.359375c0-13.253906-10.742187-24-24-24zm-344 272h180.6875l-9.238281 9.242188 10.152344 6.757812h-181.601563zm208.578126 14.769531-12-8 14.734374-14.769531-14.757812-14.757812 12-8 45.558594 22.757812zm-26.976563-46.769531-10.136719 6.761719 9.222656 9.238281h-180.6875v-16zm-213.601563 0h16v48h-16zm-16 48h-24c-13.253906 0-24-10.746093-24-24 0-13.253906 10.746094-24 24-24h24zm208-388.6875 52.6875 52.6875h-52.6875zm-4.6875-27.3125h-155.3125v-32h272v160h-32v-43.3125zm12.6875 296c0 4.417969-3.582031 8-8 8-4.417968 0-8-3.582031-8-8v-32c0-4.417969 3.582032-8 8-8 4.417969 0 8 3.582031 8 8zm184-76.640625c.023438 3.710938-2.507812 6.949219-6.109374 7.824219l-161.890626 38.832031v-2.015625c0-13.253906-10.742187-24-24-24-13.253906 0-24 10.746094-24 24v2.015625l-161.855468-38.816406c-3.621094-.863281-6.171875-4.113281-6.144532-7.839844v-67.359375c0-4.417969 3.582032-8 8-8h368c4.417969 0 8 3.582031 8 8zm0 0"/><path d="m96.039062 80.019531h144v16h-144zm0 0"/><path d="m96.039062 112.019531h144v16h-144zm0 0"/><path d="m96.039062 144.019531h144v16h-144zm0 0"/><path d="m64.039062 80.019531h16v16h-16zm0 0"/><path d="m64.039062 112.019531h16v16h-16zm0 0"/><path d="m64.039062 144.019531h16v16h-16zm0 0"/><path d="m264.039062 208.019531h16v16h-16zm0 0"/><path d="m296.039062 208.019531h16v16h-16zm0 0"/><path d="m232.039062 208.019531h16v16h-16zm0 0"/></g></svg>