<svg height="480pt" viewBox="0 0 480 480" width="480pt" xmlns="http://www.w3.org/2000/svg"><path d="m8 136h464v336h-464zm0 0" fill="#efeadd"/><path d="m400 72c0 8.835938-7.164062 16-16 16h-16c-8.835938 0-16-7.164062-16-16v-24h-224v24c0 8.835938-7.164062 16-16 16h-16c-8.835938 0-16-7.164062-16-16v-24h-72v88h464v-88h-72zm0 0" fill="#254b6f"/><path d="m96 88h16c8.835938 0 16-7.164062 16-16v-48c0-8.835938-7.164062-16-16-16h-16c-8.835938 0-16 7.164062-16 16v48c0 8.835938 7.164062 16 16 16zm0 0" fill="#ee2820"/><path d="m368 88h16c8.835938 0 16-7.164062 16-16v-48c0-8.835938-7.164062-16-16-16h-16c-8.835938 0-16 7.164062-16 16v48c0 8.835938 7.164062 16 16 16zm0 0" fill="#ee2820"/><path d="m392 400c0-13.253906 10.746094-24 24-24h-128c-13.253906 0-24 10.746094-24 24s10.746094 24 24 24h128c-13.253906 0-24-10.746094-24-24zm0 0" fill="#32784c"/><path d="m416 232v144h-128c-13.253906 0-24 10.746094-24 24v-136c0-17.671875 14.328125-32 32-32zm0 0" fill="#47ab6c"/><path d="m296 264h80v32h-80zm0 0" fill="#fa9028"/><path d="m72 184h48v48h-48zm0 0" fill="#f26158"/><path d="m168 184h48v48h-48zm0 0" fill="#f26158"/><path d="m264 184h48v48h-48zm0 0" fill="#f26158"/><path d="m360 184h48v48h-48zm0 0" fill="#f26158"/><path d="m72 280h48v48h-48zm0 0" fill="#f26158"/><path d="m168 280h48v48h-48zm0 0" fill="#f26158"/><path d="m168 376h48v48h-48zm0 0" fill="#f26158"/><path d="m8 256.078125v215.921875h205.121094c-87.105469-1.695312-205.121094-119.703125-205.121094-215.921875zm0 0" fill="#bfbbb1"/><path d="m72 376h48v48h-48zm0 0" fill="#f26158"/><g fill="#231f20"><path d="m408 40v-16c0-13.253906-10.746094-24-24-24h-16c-13.253906 0-24 10.746094-24 24v16h-208v-16c0-13.253906-10.746094-24-24-24h-16c-13.253906 0-24 10.746094-24 24v16h-72v440h480v-440zm-48-16c0-4.417969 3.582031-8 8-8h16c4.417969 0 8 3.582031 8 8v48c0 4.417969-3.582031 8-8 8h-16c-4.417969 0-8-3.582031-8-8zm-272 0c0-4.417969 3.582031-8 8-8h16c4.417969 0 8 3.582031 8 8v48c0 4.417969-3.582031 8-8 8h-16c-4.417969 0-8-3.582031-8-8zm376 440h-448v-320h448zm-448-336v-72h56v16c0 13.253906 10.746094 24 24 24h16c13.253906 0 24-10.746094 24-24v-16h208v16c0 13.253906 10.746094 24 24 24h16c13.253906 0 24-10.746094 24-24v-16h56v72zm0 0"/><path d="m288 432h128v-16c-8.835938 0-16-7.164062-16-16s7.164062-16 16-16v-160h-120c-22.082031.027344-39.972656 17.917969-40 40v136c0 17.671875 14.328125 32 32 32zm8-192h104v128h-112c-5.632812.03125-11.15625 1.570312-16 4.449219v-108.449219c0-13.253906 10.746094-24 24-24zm-8 144h100.296875c-5.730469 9.898438-5.730469 22.101562 0 32h-100.296875c-8.835938 0-16-7.164062-16-16s7.164062-16 16-16zm0 0"/><path d="m384 256h-96v48h96zm-16 32h-64v-16h64zm0 0"/><path d="m128 176h-64v64h64zm-16 48h-32v-32h32zm0 0"/><path d="m224 176h-64v64h64zm-16 48h-32v-32h32zm0 0"/><path d="m128 272h-64v64h64zm-16 48h-32v-32h32zm0 0"/><path d="m224 272h-64v64h64zm-16 48h-32v-32h32zm0 0"/><path d="m128 368h-64v64h64zm-16 48h-32v-32h32zm0 0"/><path d="m224 368h-64v64h64zm-16 48h-32v-32h32zm0 0"/><path d="m272 192h32v24h16v-40h-64v48h16zm0 0"/><path d="m368 192h32v24h16v-40h-64v40h16zm0 0"/><path d="m296 408h72c4.417969 0 8-3.582031 8-8s-3.582031-8-8-8h-72c-4.417969 0-8 3.582031-8 8s3.582031 8 8 8zm0 0"/><path d="m288 312h64v16h-64zm0 0"/><path d="m288 336h32v16h-32zm0 0"/></g></svg>