<svg height="480pt" viewBox="0 0 480 480" width="480pt" xmlns="http://www.w3.org/2000/svg"><path d="m8 136h464v336h-464zm0 0" fill="#efeadd"/><path d="m8 256.078125v215.921875h205.121094c-87.105469-1.695312-205.121094-119.703125-205.121094-215.921875zm0 0" fill="#bfbbb1"/><path d="m424 72c0 8.835938-7.164062 16-16 16h-16c-8.835938 0-16-7.164062-16-16v-24h-56v24c0 8.835938-7.164062 16-16 16h-16c-8.835938 0-16-7.164062-16-16v-24h-64v24c0 8.835938-7.164062 16-16 16h-16c-8.835938 0-16-7.164062-16-16v-24h-56v24c0 8.835938-7.164062 16-16 16h-16c-8.835938 0-16-7.164062-16-16v-24h-48v88h464v-88h-48zm0 0" fill="#254b6f"/><path d="m72 88h16c8.835938 0 16-7.164062 16-16v-48c0-8.835938-7.164062-16-16-16h-16c-8.835938 0-16 7.164062-16 16v48c0 8.835938 7.164062 16 16 16zm0 0" fill="#ee2820"/><path d="m176 88h16c8.835938 0 16-7.164062 16-16v-48c0-8.835938-7.164062-16-16-16h-16c-8.835938 0-16 7.164062-16 16v48c0 8.835938 7.164062 16 16 16zm0 0" fill="#ee2820"/><path d="m288 88h16c8.835938 0 16-7.164062 16-16v-48c0-8.835938-7.164062-16-16-16h-16c-8.835938 0-16 7.164062-16 16v48c0 8.835938 7.164062 16 16 16zm0 0" fill="#ee2820"/><path d="m392 88h16c8.835938 0 16-7.164062 16-16v-48c0-8.835938-7.164062-16-16-16h-16c-8.835938 0-16 7.164062-16 16v48c0 8.835938 7.164062 16 16 16zm0 0" fill="#ee2820"/><path d="m168 192h32v32h-32zm0 0" fill="#ffcd00"/><path d="m224 192h32v32h-32zm0 0" fill="#ffcd00"/><path d="m280 192h32v32h-32zm0 0" fill="#ffcd00"/><path d="m336 192h32v32h-32zm0 0" fill="#ffcd00"/><path d="m392 192h32v32h-32zm0 0" fill="#ffcd00"/><path d="m56 256h32v32h-32zm0 0" fill="#ffcd00"/><path d="m112 256h32v32h-32zm0 0" fill="#ffcd00"/><path d="m168 256h32v32h-32zm0 0" fill="#ffcd00"/><path d="m224 256h32v32h-32zm0 0" fill="#ffcd00"/><path d="m280 256h32v32h-32zm0 0" fill="#ffcd00"/><path d="m336 256h32v32h-32zm0 0" fill="#ffcd00"/><path d="m392 256h32v32h-32zm0 0" fill="#ffcd00"/><path d="m56 320h32v32h-32zm0 0" fill="#ffcd00"/><path d="m112 320h32v32h-32zm0 0" fill="#ffcd00"/><path d="m168 320h32v32h-32zm0 0" fill="#ffcd00"/><path d="m224 320h32v32h-32zm0 0" fill="#ffcd00"/><path d="m280 320h32v32h-32zm0 0" fill="#ffcd00"/><path d="m336 320h32v32h-32zm0 0" fill="#ffcd00"/><path d="m392 320h32v32h-32zm0 0" fill="#ffcd00"/><path d="m56 384h32v32h-32zm0 0" fill="#ffcd00"/><path d="m112 384h32v32h-32zm0 0" fill="#ffcd00"/><path d="m168 384h32v32h-32zm0 0" fill="#ffcd00"/><path d="m224 384h32v32h-32zm0 0" fill="#ffcd00"/><g fill="#231f20"><path d="m432 40v-16c0-13.253906-10.746094-24-24-24h-16c-13.253906 0-24 10.746094-24 24v16h-40v-16c0-13.253906-10.746094-24-24-24h-16c-13.253906 0-24 10.746094-24 24v16h-48v-16c0-13.253906-10.746094-24-24-24h-16c-13.253906 0-24 10.746094-24 24v16h-40v-16c0-13.253906-10.746094-24-24-24h-16c-13.253906 0-24 10.746094-24 24v16h-48v440h480v-440zm-48-16c0-4.417969 3.582031-8 8-8h16c4.417969 0 8 3.582031 8 8v48c0 4.417969-3.582031 8-8 8h-16c-4.417969 0-8-3.582031-8-8zm-104 0c0-4.417969 3.582031-8 8-8h16c4.417969 0 8 3.582031 8 8v48c0 4.417969-3.582031 8-8 8h-16c-4.417969 0-8-3.582031-8-8zm-112 0c0-4.417969 3.582031-8 8-8h16c4.417969 0 8 3.582031 8 8v48c0 4.417969-3.582031 8-8 8h-16c-4.417969 0-8-3.582031-8-8zm-104 0c0-4.417969 3.582031-8 8-8h16c4.417969 0 8 3.582031 8 8v48c0 4.417969-3.582031 8-8 8h-16c-4.417969 0-8-3.582031-8-8zm400 440h-448v-320h448zm-448-336v-72h32v16c0 13.253906 10.746094 24 24 24h16c13.253906 0 24-10.746094 24-24v-16h40v16c0 13.253906 10.746094 24 24 24h16c13.253906 0 24-10.746094 24-24v-16h48v16c0 13.253906 10.746094 24 24 24h16c13.253906 0 24-10.746094 24-24v-16h40v16c0 13.253906 10.746094 24 24 24h16c13.253906 0 24-10.746094 24-24v-16h32v72zm0 0"/><path d="m208 232h-48v-48h48zm-32-16h16v-16h-16zm0 0"/><path d="m264 232h-48v-48h48zm-32-16h16v-16h-16zm0 0"/><path d="m320 232h-48v-48h48zm-32-16h16v-16h-16zm0 0"/><path d="m376 232h-48v-48h48zm-32-16h16v-16h-16zm0 0"/><path d="m432 232h-48v-48h48zm-32-16h16v-16h-16zm0 0"/><path d="m96 296h-48v-48h48zm-32-16h16v-16h-16zm0 0"/><path d="m152 296h-48v-48h48zm-32-16h16v-16h-16zm0 0"/><path d="m208 296h-48v-48h48zm-32-16h16v-16h-16zm0 0"/><path d="m264 296h-48v-48h48zm-32-16h16v-16h-16zm0 0"/><path d="m320 296h-48v-48h48zm-32-16h16v-16h-16zm0 0"/><path d="m376 296h-48v-48h48zm-32-16h16v-16h-16zm0 0"/><path d="m432 296h-48v-48h48zm-32-16h16v-16h-16zm0 0"/><path d="m96 360h-48v-48h48zm-32-16h16v-16h-16zm0 0"/><path d="m152 360h-48v-48h48zm-32-16h16v-16h-16zm0 0"/><path d="m208 360h-48v-48h48zm-32-16h16v-16h-16zm0 0"/><path d="m264 360h-48v-48h48zm-32-16h16v-16h-16zm0 0"/><path d="m320 360h-48v-48h48zm-32-16h16v-16h-16zm0 0"/><path d="m376 360h-48v-48h48zm-32-16h16v-16h-16zm0 0"/><path d="m432 360h-48v-48h48zm-32-16h16v-16h-16zm0 0"/><path d="m96 424h-48v-48h48zm-32-16h16v-16h-16zm0 0"/><path d="m152 424h-48v-48h48zm-32-16h16v-16h-16zm0 0"/><path d="m208 424h-48v-48h48zm-32-16h16v-16h-16zm0 0"/><path d="m264 424h-48v-48h48zm-32-16h16v-16h-16zm0 0"/></g></svg>