<svg height="481pt" viewBox="0 0 481 481.888" width="481pt" xmlns="http://www.w3.org/2000/svg"><path d="m56.445312 56h256v-48h-304v416h48zm0 0" fill="#1c2e5b"/><path d="m440.445312 56c-17.675781 0-32 14.328125-32 32v32h64v-32c0-17.671875-14.328124-32-32-32zm0 0" fill="#efeadd"/><path d="m400.445312 152h64v-32h-64zm0 0" fill="#808285"/><path d="m440.445312 392 16-16 16 24v-248h-32zm0 0" fill="#f2b134"/><path d="m432.445312 392-16-16-16 24 32 64 32-64-16-24zm0 0" fill="#808285"/><path d="m440.445312 392v-240h-32v248l16-24zm0 0" fill="#ff5023"/><path d="m56.445312 56h304v416h-304zm0 0" fill="#efeadd"/><path d="m104.445312 104h48v48h-48zm0 0" fill="#254b6f"/><path d="m104.445312 192h48v48h-48zm0 0" fill="#254b6f"/><path d="m104.445312 280h48v48h-48zm0 0" fill="#254b6f"/><path d="m56.445312 272v200h184c-101.707031 0-184-89.457031-184-200zm0 0" fill="#d7d3c7"/><path d="m104.445312 376h48v48h-48zm0 0" fill="#254b6f"/><g fill="#231f20"><path d="m440.445312 48c-22.082031.027344-39.976562 17.917969-40 40v313.886719l40 80 40-80v-313.886719c-.027343-22.082031-17.921874-39.972656-40-40zm-8 324.6875-9.242187-9.246094-6.757813 10.160156v-213.601562h16zm-14.769531 27.886719 8-12 14.769531 14.738281 14.757813-14.753906 8 12-22.757813 45.554687zm46.769531-26.972657-6.761718-10.136718-9.238282 9.222656v-212.6875h16zm0-229.601562h-48v-16h48zm-48-32v-24c0-13.253906 10.742188-24 24-24 13.253907 0 24 10.746094 24 24v24zm0 0"/><path d="m320.445312 0h-320v432h48v48h320v-432h-48zm-304 416v-400h288v32h-256v368zm336 48h-288v-400h288zm0 0"/><path d="m160.445312 96h-64v64h64zm-16 48h-32v-32h32zm0 0"/><path d="m160.445312 184h-64v64h64zm-16 48h-32v-32h32zm0 0"/><path d="m160.445312 272h-64v64h64zm-16 48h-32v-32h32zm0 0"/><path d="m160.445312 368h-64v64h64zm-16 48h-32v-32h32zm0 0"/><path d="m192.445312 104h128v16h-128zm0 0"/><path d="m192.445312 136h128v16h-128zm0 0"/><path d="m192.445312 192h128v16h-128zm0 0"/><path d="m192.445312 224h128v16h-128zm0 0"/><path d="m192.445312 280h128v16h-128zm0 0"/><path d="m192.445312 312h128v16h-128zm0 0"/><path d="m192.445312 376h128v16h-128zm0 0"/><path d="m192.445312 408h32v16h-32zm0 0"/><path d="m272.445312 408h16v16h-16zm0 0"/><path d="m240.445312 408h16v16h-16zm0 0"/><path d="m304.445312 408h16v16h-16zm0 0"/></g></svg>